<svg xmlns="http://www.w3.org/2000/svg" xmlns:xlink="http://www.w3.org/1999/xlink" id="Layer_2" data-name="Layer 2" viewBox="0 0 460.5 190.3"><defs><linearGradient id="linear-gradient" x1=".6" x2="195.1" y1="89.5" y2="89.5" gradientUnits="userSpaceOnUse"><stop offset="0" stop-color="#33cc82"/><stop offset=".1" stop-color="#2fc883"/><stop offset=".7" stop-color="#0ca593"/><stop offset="1" stop-color="#099"/></linearGradient><linearGradient xlink:href="#linear-gradient" id="linear-gradient-2" x1="273.8" x2="459.6" y1="164" y2="164"/></defs><g id="Layer_1-2" data-name="Layer 1"><path d="M133 3a3.5 3.5 0 0 0-6.3-1.6L86.1 55.1 55 12.2a3.5 3.5 0 0 0-2.8-1.4l-48.7-.6a3.5 3.5 0 0 0-2.8 5.7L46 71.6a3.5 3.5 0 0 0 5 .6 3.5 3.5 0 0 0 .6-5l-40.7-50 39.5.6 33 45.4c.6 1 1.7 1.4 2.8 1.4 1.1 0 2.2-.5 2.8-1.4l43.5-57.6c.6-.8.8-1.7.6-2.6Z" fill="#ffffff"/><path fill="url(#linear-gradient)" stroke-width="0" d="M104.8 99.3c.1 1 0 1.9-.7 2.6L52.3 171c-.7.9-1.7 1.4-2.8 1.4H4c-1.3 0-2.5-.7-3.1-2-.6-1.1-.5-2.5.3-3.6l55-73.8a3.5 3.5 0 0 1 5-.7 3.5 3.5 0 0 1 .7 5l-50.9 68h36.6l50.8-67.6a3.5 3.5 0 0 1 6.3 1.6Zm90-90.8c-.6-1.2-1.8-2-3.2-2H146c-1 0-2.1.5-2.8 1.4l-61 82a3.5 3.5 0 1 0 5.7 4.2l60-80.5h36.4l-20.4 22.3a3.5 3.5 0 0 0 5.5 4.3l25-28h.1c.8-1 1-2.5.4-3.7Z"/><path d="m190.8 169-26.4-33.4a3.5 3.5 0 0 0-5.5 4.3l21.9 27.8h-40.1l-31.8-46.5a3.5 3.5 0 0 0-5.7 0L56 184.6a3.5 3.5 0 0 0 2.8 5.6c1 0 2.1-.5 2.8-1.4l44.2-59.6 30 44c.6.9 1.7 1.5 2.9 1.5H188a3.5 3.5 0 0 0 2.8-5.7Z" fill="#ffffff"/><path d="M130.4 53.9h14v8.2c5.2-6 13.3-9.5 22.4-9.5 18 0 30.2 15.1 30.2 33.9s-12.3 34-30.2 34A28 28 0 0 1 145 111v23.9h-14.6V53.9ZM182 86.5c0-11.5-8-19.8-19-19.8-10.3 0-18 8.2-18 19.8s7.6 19.9 18 19.9c11 0 19-8.4 19-20ZM200.7 86.6c0-18.8 12.2-34 30.2-34a28 28 0 0 1 21.7 9.6V54h14.7v65.3h-14.7V111a28 28 0 0 1-21.7 9.5c-18 0-30.2-15.2-30.2-33.9Zm52 0c0-11.5-7.7-20-18.1-20-11.1 0-19 8.5-19 20s7.9 19.8 19 19.8c10.3 0 18-8.2 18-19.8ZM275.4 53.9h14.7v9.4a24.3 24.3 0 0 1 21-10.7c17.8 0 23.6 11.7 23.6 29.1v37.5H320V83.6c0-10.7-2.3-16.9-13.3-16.9-9.6 0-16.6 7.5-16.6 18.3v34.2h-14.6V53.9ZM338.5 111l5.5-12a32 32 0 0 0 20.7 7.8c6 0 13-2.2 13-6.9s-6.6-6-13-7.7c-12.5-3.5-23-7.2-23-20s13-19.6 24.5-19.6a42 42 0 0 1 23.3 6.7l-5.4 11.9a34.5 34.5 0 0 0-17.8-4.9c-4.9 0-9.7 2.2-9.7 5.7 0 4.5 5.4 5.5 11.2 6.7 12.1 2.6 24.8 7.5 24.8 21 0 15.3-15.7 20.8-27.9 20.8-13.4 0-22.6-6-26.2-9.5ZM395.5 86.6c0-18.7 14.6-34 33.6-34 17.4 0 31.4 15.1 31.4 33.5a48 48 0 0 1-.4 5.7h-49.5c2.1 10.4 10.6 15.8 20.3 15.8 6.6 0 13.5-2 18.8-5.7l5.8 10.8c-7.4 5-16.1 7.8-24.8 7.8-18.6 0-35.2-12.4-35.2-33.9Zm50.8-5.7a18 18 0 0 0-18-15.5c-8.4 0-15.8 6.2-17.8 15.5h35.8Z" fill="#ffffff"/><path fill="url(#linear-gradient-2)" stroke-width="0" d="M275.4 157.6a11.7 11.7 0 0 1 10.6-6c2.7 0 5 .6 7 1.9a11 11 0 0 1 4.3 5.4h-3.8a7.7 7.7 0 0 0-7.5-4.6c-1.8 0-3.2.4-4.6 1.2-1.3.8-2.4 2-3.1 3.4-.8 1.5-1.2 3.2-1.2 5.1s.4 3.7 1.2 5.1a8.3 8.3 0 0 0 3.1 3.4c1.4.8 3 1.2 4.6 1.2s3.3-.4 4.6-1.2 2.2-1.9 2.9-3.4h3.8c-.9 2.4-2.3 4.2-4.3 5.4-2 1.3-4.3 2-7 2-2.3 0-4.3-.6-6.2-1.6-1.8-1.1-3.3-2.6-4.4-4.5-1-1.9-1.6-4-1.6-6.4s.6-4.5 1.6-6.4Zm35 17.3c-1.9-1-3.4-2.5-4.4-4.4-1.1-2-1.7-4-1.7-6.5a12.4 12.4 0 0 1 6-10.8c2-1 4-1.6 6.3-1.6s4.3.5 6.2 1.6c1.9 1 3.3 2.5 4.4 4.4 1 1.9 1.6 4 1.6 6.4s-.5 4.6-1.6 6.5c-1 1.9-2.5 3.3-4.4 4.4-1.9 1-4 1.6-6.2 1.6s-4.4-.6-6.2-1.6Zm10.8-2.4c1.3-.8 2.4-1.9 3.2-3.4s1.2-3.1 1.2-5-.4-3.7-1.2-5.2a8.5 8.5 0 0 0-7.8-4.5 8.4 8.4 0 0 0-7.8 4.6c-.8 1.4-1.2 3-1.2 5s.4 3.7 1.2 5.2 1.8 2.6 3.2 3.3c1.3.8 2.9 1.2 4.6 1.2s3.2-.4 4.6-1.2Zm34.5 3.7h-3.2l-12.8-19.4v19.4h-3.2v-24.4h3.2l12.8 19.4v-19.4h3.2v24.4Zm28 0h-3.1l-12.8-19.4v19.4h-3.2v-24.4h3.2l12.8 19.4v-19.4h3.1v24.4Zm12.2-21.7v8.1h8.8v2.6H396v8.4h9.9v2.7h-13.1v-24.5h13v2.7H396Zm18.6 3.1a11.7 11.7 0 0 1 10.6-6c2.6 0 5 .6 7 1.9a11 11 0 0 1 4.3 5.4h-3.8a7.7 7.7 0 0 0-7.5-4.6c-1.8 0-3.2.4-4.6 1.2-1.3.8-2.4 2-3.2 3.4-.7 1.5-1.1 3.2-1.1 5.1s.4 3.7 1.1 5.1a8.3 8.3 0 0 0 3.2 3.4c1.4.8 2.9 1.2 4.6 1.2s3.3-.4 4.5-1.2 2.3-1.9 3-3.4h3.8c-1 2.4-2.4 4.2-4.4 5.4-2 1.3-4.3 2-7 2-2.2 0-4.2-.6-6-1.6-2-1.1-3.4-2.6-4.5-4.5-1-1.9-1.6-4-1.6-6.4s.6-4.5 1.6-6.4Zm45-5.7v2.6H453v21.8h-3.2v-21.8H443v-2.6h16.5Z"/></g></svg>